<?xml version="1.0" standalone="no"?>
<!DOCTYPE svg PUBLIC "-//W3C//DTD SVG 20010904//EN"
 "http://www.w3.org/TR/2001/REC-SVG-20010904/DTD/svg10.dtd">
<svg version="1.0" xmlns="http://www.w3.org/2000/svg"
 width="96.000000pt" height="96.000000pt" viewBox="0 0 96.000000 96.000000"
 preserveAspectRatio="xMidYMid meet">

<g transform="translate(0.000000,96.000000) scale(0.100000,-0.100000)"
fill="#000000" stroke="none">
<path d="M25 935 l-25 -24 0 -431 0 -431 25 -24 24 -25 431 0 431 0 24 25 25
24 0 431 0 431 -25 24 -24 25 -431 0 -431 0 -24 -25z m607 -144 c75 -36 134
-94 170 -169 29 -59 33 -76 33 -152 0 -71 -4 -94 -27 -142 -42 -91 -155 -188
-217 -188 -17 0 -20 8 -23 73 -2 39 -8 80 -12 90 -6 13 -4 17 13 17 36 0 100
38 116 70 25 49 29 111 10 155 -10 22 -18 59 -19 82 -1 23 -5 45 -9 49 -3 4
-27 -1 -51 -10 -61 -23 -216 -24 -268 -2 -21 9 -42 16 -47 16 -13 0 -23 -34
-20 -68 1 -15 -6 -44 -15 -64 -34 -79 -6 -172 63 -207 22 -12 49 -21 61 -21
24 0 25 -8 4 -38 -23 -34 -64 -29 -104 13 -19 19 -42 35 -53 35 -17 0 -17 -2
5 -31 54 -72 75 -89 112 -89 34 0 36 -2 36 -35 0 -42 -20 -46 -81 -14 -100 51
-177 168 -186 283 -13 154 90 309 236 360 68 24 211 17 273 -13z"/>
</g>
</svg>
